<svg width="15" height="16" viewBox="0 0 15 16" xmlns="http://www.w3.org/2000/svg" xmlns:xlink="http://www.w3.org/1999/xlink"><title>ic_star-premium</title><desc>Created with Sketch.</desc><g id="Page-1" stroke="none" stroke-width="1" fill="none" fill-rule="evenodd"><g id="mawada-new-inner-4" transform="translate(-171.000000, -1137.000000)" fill="#fff" fill-rule="nonzero"><g id="card-man-3-copy-6" transform="translate(160.000000, 1127.000000)"><g id="premium-red" transform="translate(28.000000, 26.500000) scale(-1, 1) translate(-28.000000, -26.500000)"><g id="ic_premium-red"><path d="M38.2241898 11.1205828 39.9159998 14.7051458C40.0336473 14.9544555 40.2611202 15.1272055 40.5242629 15.1671212L44.3074466 15.7419731C44.970153 15.8427439 45.2345472 16.6940613 44.7551958 17.1825382L42.0176989 19.9727128C41.8274603 20.1667294 41.7404762 20.4464667 41.7855327 20.7203147L42.4316558 24.6601931C42.5449229 25.3502117 41.8521788 25.876314 41.2595603 25.5507719L37.8759404 23.6907645C37.6406452 23.5615291 37.3593548 23.5615291 37.1240596 23.6907645L33.7404397 25.5507719C33.1478212 25.8766412 32.4550771 25.3502117 32.5683442 24.6601931L33.2144673 20.7203147C33.2595238 20.4464667 33.1725397 20.1667294 32.9823011 19.9727128L30.2448042 17.1825382C29.7654528 16.6937341 30.029847 15.8424168 30.6925534 15.7419731L34.4757371 15.1671212C34.7388798 15.1272055 34.9663527 14.9544555 35.0840002 14.7051458L36.7758102 11.1205828C37.0718066 10.492728 37.9278805 10.492728 38.2241898 11.1205828z" id="ic_star-premium"/></g></g></g></g></g></svg>