<svg xmlns="http://www.w3.org/2000/svg" xmlns:xlink="http://www.w3.org/1999/xlink" version="1.1" id="Layer_1" x="0px" y="0px" width="100%" viewBox="0 0 350 550" enable-background="new 0 0 350 550" xml:space="preserve">
<path fill="transparent" opacity="1.000000" stroke="none" d=" M351.000000,202.000000   C351.000000,318.634430 351.000000,434.768829 351.000000,550.951660   C234.397980,550.951660 117.795937,550.951660 1.096944,550.951660   C1.096944,367.782227 1.096944,184.564392 1.096944,1.173279   C117.666458,1.173279 234.333206,1.173279 351.000000,1.173279   C351.000000,67.870766 351.000000,134.685379 351.000000,202.000000  M83.856216,68.286140   C83.634445,68.460327 83.383049,68.536636 82.645844,69.068092   C74.742722,75.968086 66.941139,82.989960 58.882664,89.703461   C55.972851,92.127617 54.384548,94.764938 54.318531,98.529251   C53.997414,116.838768 53.027054,135.161896 53.499310,153.448883   C53.708099,161.533646 55.319130,170.326233 59.048336,177.330902   C61.825558,182.547470 62.245266,186.933350 61.799885,192.101212   C61.628548,194.089264 61.329590,196.067429 61.053493,198.045166   C56.823742,228.344528 52.673656,258.655457 48.296238,288.933502   C47.143188,296.908997 45.283173,304.782318 43.477600,314.096375   C48.698013,311.918365 52.727848,310.237122 56.969505,308.467468   C56.344696,311.092529 55.515228,313.772461 55.084805,316.515076   C52.068336,335.735596 49.024208,354.953033 46.209641,374.203705   C44.068123,388.850952 42.226200,403.542542 40.368225,418.229248   C40.278206,418.940796 41.318279,419.795319 41.659397,421.476624   C30.366001,439.867767 19.072607,458.258942 8.175102,476.005402   C18.451813,478.899323 29.061411,481.532928 39.437962,484.887390   C57.587978,490.754883 72.618156,502.263550 88.255318,512.659302   C130.668198,540.856018 177.423172,548.238708 226.697311,539.272949   C267.735809,531.805664 304.889130,513.855713 340.372589,492.377228   C341.164703,491.897766 341.827850,491.205322 342.642944,490.536987   C320.470825,469.208221 302.229675,445.122253 286.923431,418.797119   C254.430130,362.911957 239.650864,300.997559 225.988419,238.731445   C225.697968,237.407730 226.714264,235.337296 227.773605,234.252609   C234.282257,227.588120 241.388214,221.464005 247.492706,214.460419   C253.079803,208.050461 257.652252,200.756088 261.810608,195.036026   C255.408600,189.157211 249.941650,184.222656 244.582382,179.173813   C242.423035,177.139557 242.723083,175.003632 244.393921,172.544357   C249.706619,164.724808 254.799652,156.756027 260.062439,148.715210   C259.246552,147.981552 258.529175,147.314438 257.788788,146.673889   C234.396423,126.435684 215.126602,103.400826 205.902267,73.052826   C203.667526,65.700546 199.950073,58.554272 195.696838,52.117859   C189.410995,42.605473 178.674973,39.300831 168.052475,41.819439   C165.205917,42.494362 164.572800,43.797050 164.448578,46.592094   C160.845367,49.391891 157.056366,51.993702 153.743164,55.102551   C152.634613,56.142723 152.740768,58.477448 152.117554,60.911381   C149.663300,64.975136 147.209045,69.038895 145.239655,72.299828   C145.239655,77.106613 145.239655,81.362350 145.239655,85.851463   C152.681808,87.565376 157.720230,92.257553 160.906403,99.819267   C152.316208,120.039642 143.725998,140.260010 134.661987,159.860855   C127.419563,144.930130 125.934334,128.698715 124.023018,112.572372   C122.670547,101.161247 120.042793,90.342468 110.864555,81.661896   C109.940071,81.020416 109.015587,80.378944 108.023186,78.880516   C108.589561,75.803398 105.977943,70.823921 111.140541,70.354065   C117.201530,69.802452 118.965248,65.818062 121.194443,61.498299   C122.276352,59.401760 124.126328,57.701572 125.897415,55.485580   C125.897415,50.681694 125.897415,45.080845 126.315979,39.008518   C128.062256,36.181252 131.668488,33.033966 131.246231,30.579802   C128.895721,16.918150 112.689980,6.773402 98.965080,9.578135   C88.741356,11.667390 84.729805,16.677134 84.112480,27.103514   C83.456078,38.189823 87.061386,48.386028 89.839783,59.431553   C89.855118,59.887821 89.870453,60.344093 89.313957,61.151371   C87.522514,63.440472 85.731079,65.729576 83.972878,67.930458   C83.972878,67.930458 84.066467,67.941750 83.856216,68.286140  z"/>
<path fill="#FEFFFE" opacity="1.000000" stroke="none" d=" M165.025742,46.278198   C164.572800,43.797050 165.205917,42.494362 168.052475,41.819439   C178.674973,39.300831 189.410995,42.605473 195.696838,52.117859   C199.950073,58.554272 203.667526,65.700546 205.902267,73.052826   C215.126602,103.400826 234.396423,126.435684 257.788788,146.673889   C258.529175,147.314438 259.246552,147.981552 260.062439,148.715210   C254.799652,156.756027 249.706619,164.724808 244.393921,172.544357   C242.723083,175.003632 242.423035,177.139557 244.582382,179.173813   C249.941650,184.222656 255.408600,189.157211 261.810608,195.036026   C257.652252,200.756088 253.079803,208.050461 247.492706,214.460419   C241.388214,221.464005 234.282257,227.588120 227.773605,234.252609   C226.714264,235.337296 225.697968,237.407730 225.988419,238.731445   C239.650864,300.997559 254.430130,362.911957 286.923431,418.797119   C302.229675,445.122253 320.470825,469.208221 342.642944,490.536987   C341.827850,491.205322 341.164703,491.897766 340.372589,492.377228   C304.889130,513.855713 267.735809,531.805664 226.697311,539.272949   C177.423172,548.238708 130.668198,540.856018 88.255318,512.659302   C72.618156,502.263550 57.587978,490.754883 39.437962,484.887390   C29.061411,481.532928 18.451813,478.899323 8.175102,476.005402   C19.072607,458.258942 30.366001,439.867767 41.828342,420.910248   C43.658546,417.499786 45.357750,414.677124 46.975452,411.808472   C78.921799,355.158447 104.836319,295.672638 129.541870,235.633698   C132.233078,229.093582 133.601212,221.997162 135.391876,215.109070   C135.724030,213.831360 135.550705,212.084412 134.912247,210.945602   C129.776321,201.784653 129.070969,191.917740 130.561066,181.888718   C131.631378,174.685059 133.579361,167.611816 135.135803,160.480392   C143.725998,140.260010 152.316208,120.039642 161.206970,99.231796   C163.347183,93.523026 165.186813,88.401733 167.288361,82.972038   C170.689926,70.258934 168.828918,58.201191 165.025742,46.278198  z"/>
<path fill="#010201" opacity="1.000000" stroke="none" d=" M134.898895,160.170624   C133.579361,167.611816 131.631378,174.685059 130.561066,181.888718   C129.070969,191.917740 129.776321,201.784653 134.912247,210.945602   C135.550705,212.084412 135.724030,213.831360 135.391876,215.109070   C133.601212,221.997162 132.233078,229.093582 129.541870,235.633698   C104.836319,295.672638 78.921799,355.158447 46.975452,411.808472   C45.357750,414.677124 43.658546,417.499786 41.914696,420.463562   C41.318279,419.795319 40.278206,418.940796 40.368225,418.229248   C42.226200,403.542542 44.068123,388.850952 46.209641,374.203705   C49.024208,354.953033 52.068336,335.735596 55.084805,316.515076   C55.515228,313.772461 56.344696,311.092529 56.969505,308.467468   C52.727848,310.237122 48.698013,311.918365 43.477600,314.096375   C45.283173,304.782318 47.143188,296.908997 48.296238,288.933502   C52.673656,258.655457 56.823742,228.344528 61.053493,198.045166   C61.329590,196.067429 61.628548,194.089264 61.799885,192.101212   C62.245266,186.933350 61.825558,182.547470 59.048336,177.330902   C55.319130,170.326233 53.708099,161.533646 53.499310,153.448883   C53.027054,135.161896 53.997414,116.838768 54.318531,98.529251   C54.384548,94.764938 55.972851,92.127617 58.882664,89.703461   C66.941139,82.989960 74.742722,75.968086 83.025368,68.680359   C83.633247,68.190445 83.853775,68.073486 84.066467,67.941750   C84.066467,67.941750 83.972878,67.930458 84.295074,68.030380   C95.654808,75.513206 104.225929,85.162682 110.819038,96.822968   C110.554642,92.549355 109.732544,88.555359 109.019180,84.542030   C108.790482,83.255440 107.940857,81.144447 110.849190,82.368248   C120.042793,90.342468 122.670547,101.161247 124.023018,112.572372   C125.934334,128.698715 127.419563,144.930130 134.898895,160.170624  z"/>
<path fill="#4F2B28" opacity="1.000000" stroke="none" d=" M89.976089,58.756172   C87.061386,48.386028 83.456078,38.189823 84.112480,27.103514   C84.729805,16.677134 88.741356,11.667390 98.965080,9.578135   C112.689980,6.773402 128.895721,16.918150 131.246231,30.579802   C131.668488,33.033966 128.062256,36.181252 125.774254,39.394344   C118.577454,44.349232 111.081352,46.577938 102.992729,48.204918   C102.691513,45.784893 102.805374,43.689041 102.094948,41.925179   C101.504936,40.460266 99.945000,39.386009 98.814728,38.138699   C97.564728,39.516682 95.557976,40.742138 95.242279,42.308437   C94.769913,44.652069 95.722282,47.242817 95.644020,49.715015   C95.516731,53.735397 94.986725,57.707340 89.976089,58.756172  z"/>
<path fill="#FCE3CC" opacity="1.000000" stroke="none" d=" M89.907936,59.093864   C94.986725,57.707340 95.516731,53.735397 95.644020,49.715015   C95.722282,47.242817 94.769913,44.652069 95.242279,42.308437   C95.557976,40.742138 97.564728,39.516682 98.814728,38.138699   C99.945000,39.386009 101.504936,40.460266 102.094948,41.925179   C102.805374,43.689041 102.691513,45.784893 102.992729,48.204918   C111.081352,46.577938 118.577454,44.349232 125.564972,39.630081   C125.897415,45.080845 125.897415,50.681694 125.897415,55.485580   C124.126328,57.701572 122.276352,59.401760 121.194443,61.498299   C118.965248,65.818062 117.201530,69.802452 111.140541,70.354065   C105.977943,70.823921 108.589561,75.803398 108.051567,79.716400   C108.003448,82.097054 107.926949,83.641830 107.782867,86.551506   C102.557640,79.842102 98.032784,74.288612 93.826080,68.503761   C92.150375,66.199409 91.178223,63.383427 89.885788,60.800362   C89.870453,60.344093 89.855118,59.887821 89.907936,59.093864  z"/>
<path fill="#FAE3CB" opacity="1.000000" stroke="none" d=" M167.026443,83.280434   C165.186813,88.401733 163.347183,93.523026 161.219086,98.857246   C157.720230,92.257553 152.681808,87.565376 145.239655,85.851463   C145.239655,81.362350 145.239655,77.106613 145.239655,72.299828   C147.209045,69.038895 149.663300,64.975136 152.464569,60.732029   C160.163589,66.493866 163.587296,74.891975 167.026443,83.280434  z"/>
<path fill="#060706" opacity="1.000000" stroke="none" d=" M167.288361,82.972038   C163.587296,74.891975 160.163589,66.493866 152.551636,60.386551   C152.740768,58.477448 152.634613,56.142723 153.743164,55.102551   C157.056366,51.993702 160.845367,49.391891 164.737152,46.435146   C168.828918,58.201191 170.689926,70.258934 167.288361,82.972038  z"/>
<path fill="#F5F6F4" opacity="1.000000" stroke="none" d=" M89.599869,60.975868   C91.178223,63.383427 92.150375,66.199409 93.826080,68.503761   C98.032784,74.288612 102.557640,79.842102 107.782867,86.551506   C107.926949,83.641830 108.003448,82.097054 108.085526,80.144875   C109.015587,80.378944 109.940071,81.020416 110.856873,82.015076   C107.940857,81.144447 108.790482,83.255440 109.019180,84.542030   C109.732544,88.555359 110.554642,92.549355 110.819038,96.822968   C104.225929,85.162682 95.654808,75.513206 84.278458,68.074486   C85.731079,65.729576 87.522514,63.440472 89.599869,60.975868  z"/>
<path fill="#F5F6F4" opacity="1.000000" stroke="none" d=" M83.961342,68.113945   C83.853775,68.073486 83.633247,68.190445 83.253464,68.403854   C83.383049,68.536636 83.634445,68.460327 83.961342,68.113945  z"/>
</svg>